<?xml version="1.0" standalone="no"?>
<!DOCTYPE svg PUBLIC "-//W3C//DTD SVG 20010904//EN"
 "http://www.w3.org/TR/2001/REC-SVG-20010904/DTD/svg10.dtd">
<svg version="1.0" xmlns="http://www.w3.org/2000/svg"
 width="300.000000pt" height="300.000000pt" viewBox="0 0 300.000000 300.000000"
 preserveAspectRatio="xMidYMid meet">
<metadata>
Created by potrace 1.10, written by Peter Selinger 2001-2011
</metadata>
<g transform="translate(0.000000,300.000000) scale(0.100000,-0.100000)"
fill="#000000" stroke="none">
<path d="M2210 2990 c0 -5 6 -10 13 -10 39 0 289 -232 388 -360 166 -215 320
-482 370 -640 16 -52 17 -53 18 -20 1 60 -47 187 -112 293 -16 26 -27 50 -24
53 2 3 34 -29 71 -71 47 -54 66 -70 66 -56 0 12 -43 65 -103 128 -57 59 -126
143 -155 186 -105 156 -288 353 -430 460 -58 44 -102 60 -102 37z"/>
<path d="M2830 2996 c0 -3 13 -24 29 -48 39 -58 100 -173 122 -228 l18 -45 0
40 c1 27 -11 64 -38 115 -21 41 -49 96 -62 122 -18 35 -30 47 -46 48 -13 0
-23 -2 -23 -4z"/>
<path d="M1688 2628 c-13 -18 -64 -93 -112 -165 -48 -73 -92 -133 -99 -133 -7
0 -54 72 -106 160 -68 116 -99 160 -113 160 -45 0 -31 -47 50 -175 21 -33 60
-95 87 -138 l48 -77 -30 -38 c-16 -20 -69 -94 -118 -164 -54 -79 -94 -128
-105 -128 -34 0 -391 190 -499 265 -149 104 -146 101 -142 191 2 69 -8 96 -23
58 -12 -31 -6 -234 9 -306 47 -223 202 -544 344 -712 28 -33 49 -61 47 -64
-12 -11 -208 119 -306 203 -45 38 -140 138 -140 147 0 15 59 18 99 3 53 -18
51 -18 51 -1 0 19 -51 37 -125 45 l-60 6 -67 133 c-51 101 -71 155 -87 230
-12 54 -21 107 -21 119 0 31 -19 38 -29 11 -5 -14 -3 -43 6 -78 28 -114 28
-115 -10 -187 -97 -188 -163 -546 -157 -848 2 -49 2 -94 1 -100 -1 -5 -20 24
-41 65 -33 64 -39 71 -40 46 0 -29 127 -245 222 -379 23 -31 39 -59 36 -62 -8
-8 -158 43 -207 71 -51 28 -51 28 -51 9 0 -23 76 -61 189 -94 57 -17 105 -31
106 -31 2 0 17 -22 35 -50 35 -55 89 -186 109 -270 22 -86 56 -152 103 -197
46 -45 166 -113 198 -113 11 0 29 -9 40 -20 24 -24 40 -26 40 -4 0 14 8 15 48
9 26 -4 51 -11 57 -16 14 -14 822 -12 827 2 2 7 33 16 68 20 35 5 68 13 74 18
6 5 22 12 36 16 46 14 124 53 220 109 52 30 98 52 102 48 4 -4 10 -25 13 -48
l7 -40 -81 -53 c-44 -28 -83 -57 -87 -62 -13 -22 8 -21 49 1 47 26 284 197
293 212 16 26 -12 17 -65 -20 -65 -46 -91 -52 -91 -22 0 27 125 90 195 97 45
5 56 2 75 -17 l22 -22 -61 -54 c-60 -55 -69 -72 -87 -162 -5 -25 -3 -32 8 -32
10 0 18 14 22 43 9 54 44 113 94 158 66 59 210 169 221 169 6 0 11 -10 10 -22
0 -17 -22 -38 -86 -83 -102 -71 -169 -137 -182 -179 -21 -69 -22 -86 -6 -86 8
0 17 12 21 28 12 58 30 88 84 142 63 63 146 121 164 114 7 -3 17 -26 23 -52
37 -166 58 -232 77 -232 20 0 20 3 -8 95 -30 99 -48 171 -56 220 -5 28 -14 73
-19 100 -25 112 -40 205 -51 300 -6 55 -15 120 -20 145 -4 25 -16 115 -24 200
-9 85 -23 207 -31 270 -7 63 -17 219 -20 347 l-7 231 138 -5 c111 -4 146 -9
172 -24 41 -23 42 -23 42 -1 -1 44 -291 185 -530 257 -30 9 -66 21 -80 25 -14
5 -70 21 -125 35 -100 27 -382 122 -463 157 -24 10 -54 18 -66 18 -12 0 -28 6
-36 13 -11 10 -11 8 0 -7 30 -39 232 -111 725 -260 138 -42 465 -167 465 -178
0 -5 -73 -8 -162 -8 -162 0 -302 -11 -388 -30 -45 -10 -383 -53 -495 -64 -33
-3 -65 -2 -71 2 -7 4 -29 36 -50 72 -21 36 -55 92 -76 124 -21 33 -38 64 -38
70 0 7 25 28 56 49 57 37 81 46 69 26 -5 -7 6 -9 36 -4 24 4 82 7 129 8 88 2
157 -16 257 -65 40 -20 68 -19 47 1 -19 19 -177 82 -252 102 -132 34 -297 4
-332 -62 -6 -10 -17 -19 -24 -19 -17 0 -56 63 -56 90 0 10 56 102 125 204 69
102 125 192 125 200 0 16 -21 26 -55 26 -14 0 -32 -12 -47 -32z m60 -16 c-3
-9 -57 -94 -120 -187 -63 -94 -117 -177 -120 -185 -3 -9 -29 -46 -57 -83 -28
-36 -80 -111 -116 -165 -65 -99 -91 -124 -106 -100 -9 14 -16 2 85 146 45 65
107 155 138 202 31 47 71 105 89 130 17 25 61 88 97 140 35 52 69 101 74 108
16 19 41 15 36 -6z m-1125 -401 c34 -26 98 -71 142 -98 92 -57 378 -203 398
-203 7 0 26 -13 41 -29 22 -23 35 -29 56 -25 15 3 74 -6 131 -20 116 -30 302
-47 283 -27 -6 7 -49 18 -95 26 -143 22 -264 47 -273 56 -5 4 4 24 21 46 17
21 58 80 92 131 34 50 66 92 70 92 9 0 171 -259 198 -315 27 -60 73 -86 87
-50 4 12 24 15 93 15 88 0 177 11 458 55 83 13 182 27 220 31 39 4 72 7 74 8
3 1 6 -100 8 -224 2 -133 11 -293 22 -390 11 -91 24 -219 31 -285 6 -66 18
-162 26 -213 9 -52 13 -104 10 -117 -6 -25 -199 -224 -276 -286 -67 -54 -197
-139 -212 -139 -7 0 -29 -11 -48 -24 -120 -81 -231 -131 -385 -173 -84 -23
-110 -25 -394 -30 -420 -7 -610 14 -742 83 -117 62 -157 119 -205 298 -33 123
-69 187 -283 504 l-56 84 -3 120 c-6 215 13 426 53 575 39 148 108 339 120
336 5 -1 14 -19 20 -41 7 -21 33 -76 58 -121 26 -46 47 -89 47 -96 0 -8 5 -17
10 -20 15 -9 12 -25 -5 -25 -8 0 -15 7 -15 15 0 22 -48 0 -114 -53 -63 -51
-105 -106 -116 -155 -8 -40 4 -75 15 -42 20 61 32 79 76 119 42 38 164 106
189 106 5 0 16 -12 24 -27 26 -49 175 -182 291 -260 33 -22 92 -55 130 -72 39
-18 82 -39 98 -47 41 -23 33 0 -18 52 -170 172 -351 522 -410 794 -8 41 -18
83 -21 93 -9 28 13 20 79 -32z m2123 -1708 c19 -96 15 -122 -23 -145 -15 -10
-49 -31 -75 -48 l-47 -31 -38 21 c-41 22 -69 25 -105 11 -13 -4 -36 -11 -52
-15 -28 -7 -27 -5 14 31 119 105 238 214 263 243 16 18 33 28 38 23 4 -4 16
-45 25 -90z"/>
<path d="M2406 1509 c-109 -23 -302 -99 -375 -147 -29 -20 -76 -56 -103 -81
-40 -37 -51 -55 -58 -91 -13 -70 -14 -70 96 23 117 98 396 217 511 217 17 0
39 3 48 6 14 6 14 8 0 24 -8 9 -14 27 -13 40 2 12 -1 24 -7 26 -5 1 -50 -6
-99 -17z"/>
<path d="M1888 1364 c-45 -38 -87 -84 -88 -96 -1 -19 23 -3 91 62 78 73 76 99
-3 34z"/>
<path d="M792 1012 c-50 -14 -23 -25 56 -23 88 2 112 7 112 22 0 10 -133 10
-168 1z"/>
<path d="M825 928 c-154 -25 -370 -89 -413 -124 -5 -3 19 -76 28 -87 4 -4 40
8 81 27 102 47 341 106 457 113 50 3 92 9 92 13 0 5 -16 22 -35 39 -32 28 -42
31 -93 30 -31 -1 -84 -6 -117 -11z m60 -38 c-3 -5 -17 -10 -29 -10 -13 0 -43
-7 -67 -16 -37 -13 -80 -25 -179 -48 -8 -2 -40 -13 -70 -25 -62 -24 -70 -25
-70 -11 0 28 136 73 300 100 41 6 82 13 90 15 29 5 31 5 25 -5z"/>
<path d="M1790 729 c-112 -19 -285 -88 -392 -157 -56 -36 -57 -38 -58 -83 0
-65 43 -183 87 -237 40 -49 145 -122 175 -122 30 0 21 14 -27 39 -109 58 -182
151 -169 217 13 71 42 147 67 179 47 59 302 145 430 145 l65 0 50 -55 c76 -83
91 -175 48 -297 -25 -72 -21 -87 13 -40 48 68 53 200 11 286 -29 58 -79 112
-115 126 -31 12 -108 11 -185 -1z m-370 -209 c0 -20 -30 -83 -37 -77 -11 12
-5 70 9 78 18 12 28 11 28 -1z"/>
<path d="M0 744 c0 -5 27 -54 60 -107 33 -54 60 -100 60 -103 0 -3 18 -42 39
-87 47 -98 148 -327 185 -419 11 -29 26 -37 26 -15 0 8 -25 72 -56 143 -31 71
-68 158 -84 194 -45 106 -134 274 -175 332 -49 68 -55 75 -55 62z"/>
</g>
</svg>
